<mxfile host="app.diagrams.net" modified="2021-07-15T02:48:06.042Z" agent="5.0 (Macintosh; Intel Mac OS X 10_15_7) AppleWebKit/537.36 (KHTML, like Gecko) Chrome/91.0.4472.114 Safari/537.36" etag="flgMBWKGmo12BdfUEJXh" version="14.8.6" type="github">
  <diagram id="Vz_FV9SBd3v7S3PS836C" name="Page-1">
    <mxGraphModel dx="946" dy="576" grid="1" gridSize="10" guides="1" tooltips="1" connect="1" arrows="1" fold="1" page="1" pageScale="1" pageWidth="850" pageHeight="1100" math="0" shadow="0">
      <root>
        <mxCell id="0" />
        <mxCell id="1" parent="0" />
        <mxCell id="C10_gIJ23dqVuuQPv52h-2" value="" style="rounded=0;whiteSpace=wrap;html=1;rotation=90;" vertex="1" parent="1">
          <mxGeometry x="7.5" y="192.5" width="395" height="240" as="geometry" />
        </mxCell>
        <mxCell id="C10_gIJ23dqVuuQPv52h-3" value="" style="rounded=0;whiteSpace=wrap;html=1;" vertex="1" parent="1">
          <mxGeometry x="90" y="115" width="230" height="25" as="geometry" />
        </mxCell>
        <mxCell id="C10_gIJ23dqVuuQPv52h-4" value="" style="rounded=0;whiteSpace=wrap;html=1;" vertex="1" parent="1">
          <mxGeometry x="90" y="140" width="230" height="90" as="geometry" />
        </mxCell>
        <mxCell id="C10_gIJ23dqVuuQPv52h-5" value="" style="whiteSpace=wrap;html=1;aspect=fixed;" vertex="1" parent="1">
          <mxGeometry x="90" y="230" width="110" height="110" as="geometry" />
        </mxCell>
        <mxCell id="C10_gIJ23dqVuuQPv52h-6" value="" style="whiteSpace=wrap;html=1;aspect=fixed;" vertex="1" parent="1">
          <mxGeometry x="210" y="230" width="110" height="110" as="geometry" />
        </mxCell>
        <mxCell id="C10_gIJ23dqVuuQPv52h-7" value="" style="rounded=0;whiteSpace=wrap;html=1;" vertex="1" parent="1">
          <mxGeometry x="90" y="480" width="230" height="25" as="geometry" />
        </mxCell>
        <mxCell id="C10_gIJ23dqVuuQPv52h-8" value="" style="whiteSpace=wrap;html=1;aspect=fixed;" vertex="1" parent="1">
          <mxGeometry x="105" y="355" width="60" height="60" as="geometry" />
        </mxCell>
        <mxCell id="C10_gIJ23dqVuuQPv52h-9" value="" style="whiteSpace=wrap;html=1;aspect=fixed;" vertex="1" parent="1">
          <mxGeometry x="175" y="355" width="60" height="60" as="geometry" />
        </mxCell>
        <mxCell id="C10_gIJ23dqVuuQPv52h-10" value="" style="whiteSpace=wrap;html=1;aspect=fixed;" vertex="1" parent="1">
          <mxGeometry x="245" y="355" width="60" height="60" as="geometry" />
        </mxCell>
        <mxCell id="C10_gIJ23dqVuuQPv52h-12" value="" style="rounded=1;whiteSpace=wrap;html=1;" vertex="1" parent="1">
          <mxGeometry x="110" y="430" width="190" height="45" as="geometry" />
        </mxCell>
      </root>
    </mxGraphModel>
  </diagram>
</mxfile>
